REM DIRINDEX 1\3,1\4,1\5,1\6,1\2\7,1\2\8,1\2\9,1\10
REM DIRNAME cjc056,folder01,folder02,folder03,folder04,folder05,folder06,folder07,folder08,folder09
TITLE ""
FILE "2-46 Level 6-928-938.mp3" MP3
  TRACK 01 AUDIO
    TITLE "0:"
    INDEX 01 00:00:00
  TRACK 02 AUDIO
    TITLE "7:cjc056_3186"
    INDEX 01 00:00:07
  TRACK 03 AUDIO
    TITLE "0:"
    INDEX 01 00:01:30
  TRACK 04 AUDIO
    TITLE "8:cjc056_3187"
    INDEX 01 00:01:42
  TRACK 05 AUDIO
    TITLE "0:"
    INDEX 01 00:02:45
  TRACK 06 AUDIO
    TITLE "9:cjc056_3188"
    INDEX 01 00:02:59
  TRACK 07 AUDIO
    TITLE "0:"
    INDEX 01 00:06:00
  TRACK 08 AUDIO
    TITLE "7:cjc056_3189"
    INDEX 01 00:06:51
  TRACK 09 AUDIO
    TITLE "0:"
    INDEX 01 00:07:66
  TRACK 10 AUDIO
    TITLE "8:cjc056_3190"
    INDEX 01 00:08:05
  TRACK 11 AUDIO
    TITLE "0:"
    INDEX 01 00:09:44
  TRACK 12 AUDIO
    TITLE "9:cjc056_3191"
    INDEX 01 00:09:57
  TRACK 13 AUDIO
    TITLE "0:"
    INDEX 01 00:14:27
  TRACK 14 AUDIO
    TITLE "7:cjc056_3192"
    INDEX 01 00:15:01
  TRACK 15 AUDIO
    TITLE "0:"
    INDEX 01 00:16:18
  TRACK 16 AUDIO
    TITLE "8:cjc056_3193"
    INDEX 01 00:16:32
  TRACK 17 AUDIO
    TITLE "0:"
    INDEX 01 00:17:51
  TRACK 18 AUDIO
    TITLE "9:cjc056_3194"
    INDEX 01 00:17:65
  TRACK 19 AUDIO
    TITLE "0:"
    INDEX 01 00:20:26
  TRACK 20 AUDIO
    TITLE "7:cjc056_3195"
    INDEX 01 00:21:06
  TRACK 21 AUDIO
    TITLE "0:"
    INDEX 01 00:21:66
  TRACK 22 AUDIO
    TITLE "8:cjc056_3196"
    INDEX 01 00:22:05
  TRACK 23 AUDIO
    TITLE "0:"
    INDEX 01 00:23:32
  TRACK 24 AUDIO
    TITLE "9:cjc056_3197"
    INDEX 01 00:23:44
  TRACK 25 AUDIO
    TITLE "0:"
    INDEX 01 00:25:50
  TRACK 26 AUDIO
    TITLE "7:cjc056_3198"
    INDEX 01 00:26:26
  TRACK 27 AUDIO
    TITLE "0:"
    INDEX 01 00:27:22
  TRACK 28 AUDIO
    TITLE "8:cjc056_3199"
    INDEX 01 00:27:38
  TRACK 29 AUDIO
    TITLE "0:"
    INDEX 01 00:28:35
  TRACK 30 AUDIO
    TITLE "9:cjc056_3200"
    INDEX 01 00:28:49
  TRACK 31 AUDIO
    TITLE "0:"
    INDEX 01 00:32:03
  TRACK 32 AUDIO
    TITLE "7:cjc056_3201"
    INDEX 01 00:32:54
  TRACK 33 AUDIO
    TITLE "0:"
    INDEX 01 00:33:69
  TRACK 34 AUDIO
    TITLE "8:cjc056_3202"
    INDEX 01 00:34:10
  TRACK 35 AUDIO
    TITLE "0:"
    INDEX 01 00:35:35
  TRACK 36 AUDIO
    TITLE "9:cjc056_3203"
    INDEX 01 00:35:49
  TRACK 37 AUDIO
    TITLE "0:"
    INDEX 01 00:39:33
  TRACK 38 AUDIO
    TITLE "7:cjc056_3204"
    INDEX 01 00:40:09
  TRACK 39 AUDIO
    TITLE "0:"
    INDEX 01 00:41:20
  TRACK 40 AUDIO
    TITLE "8:cjc056_3205"
    INDEX 01 00:41:34
  TRACK 41 AUDIO
    TITLE "0:"
    INDEX 01 00:42:29
  TRACK 42 AUDIO
    TITLE "9:cjc056_3206"
    INDEX 01 00:42:41
  TRACK 43 AUDIO
    TITLE "0:"
    INDEX 01 00:46:06
  TRACK 44 AUDIO
    TITLE "7:cjc056_3207"
    INDEX 01 00:46:58
  TRACK 45 AUDIO
    TITLE "0:"
    INDEX 01 00:47:58
  TRACK 46 AUDIO
    TITLE "8:cjc056_3208"
    INDEX 01 00:47:70
  TRACK 47 AUDIO
    TITLE "0:"
    INDEX 01 00:49:39
  TRACK 48 AUDIO
    TITLE "9:cjc056_3209"
    INDEX 01 00:49:51
  TRACK 49 AUDIO
    TITLE "0:"
    INDEX 01 00:52:22
  TRACK 50 AUDIO
    TITLE "7:cjc056_3210"
    INDEX 01 00:53:00
  TRACK 51 AUDIO
    TITLE "0:"
    INDEX 01 00:54:29
  TRACK 52 AUDIO
    TITLE "8:cjc056_3211"
    INDEX 01 00:54:42
  TRACK 53 AUDIO
    TITLE "0:"
    INDEX 01 00:56:16
  TRACK 54 AUDIO
    TITLE "9:cjc056_3212"
    INDEX 01 00:56:29
  TRACK 55 AUDIO
    TITLE "0:"
    INDEX 01 00:59:41
  TRACK 56 AUDIO
    TITLE "7:cjc056_3213"
    INDEX 01 01:00:15
  TRACK 57 AUDIO
    TITLE "0:"
    INDEX 01 01:01:34
  TRACK 58 AUDIO
    TITLE "8:cjc056_3214"
    INDEX 01 01:01:50
  TRACK 59 AUDIO
    TITLE "0:"
    INDEX 01 01:03:18
  TRACK 60 AUDIO
    TITLE "9:cjc056_3215"
    INDEX 01 01:03:29
  TRACK 61 AUDIO
    TITLE "0:"
    INDEX 01 01:06:71
  TRACK 62 AUDIO
    TITLE "7:cjc056_3216"
    INDEX 01 01:07:47
  TRACK 63 AUDIO
    TITLE "0:"
    INDEX 01 01:08:54
  TRACK 64 AUDIO
    TITLE "8:cjc056_3217"
    INDEX 01 01:08:66
  TRACK 65 AUDIO
    TITLE "0:"
    INDEX 01 01:10:69
  TRACK 66 AUDIO
    TITLE "9:cjc056_3218"
    INDEX 01 01:11:07
  TRACK 67 AUDIO
    TITLE "0:"
    INDEX 01 01:14:65
